HIERARCHY
ROOT Hips
{
	OFFSET 0.000000 0.000000 0.000000
	CHANNELS 6 Xposition Yposition Zposition Xrotation Yrotation Zrotation
	JOINT LeftUpLeg_virtual
	{
		OFFSET 0.000000 0.000000 0.000000
		CHANNELS 3 Xrotation Yrotation Zrotation
		JOINT LeftUpLeg
		{
			OFFSET 15.427100 -6.655098 0.678600
			CHANNELS 3 Xrotation Yrotation Zrotation
			JOINT LeftLeg
			{
				OFFSET 4.081073 -39.591068 13.024000
				CHANNELS 3 Xrotation Yrotation Zrotation
				JOINT LeftFoot
				{
					OFFSET -4.081074 -37.707932 -15.979700
					CHANNELS 3 Xrotation Yrotation Zrotation
					JOINT LeftToeBase
					{
						OFFSET 5.346399 -15.068900 20.645000
						CHANNELS 3 Xrotation Yrotation Zrotation
						JOINT LeftToe_End
						{
							OFFSET 2.754700 0.931300 11.300900
							CHANNELS 3 Xrotation Yrotation Zrotation
							End Site
							{
								OFFSET 0 0 0
							}
						}
					}
				}
			}
		}
	}
	JOINT RightUpLeg_virtual
	{
		OFFSET 0.000000 0.000000 0.000000
		CHANNELS 3 Xrotation Yrotation Zrotation
		JOINT RightUpLeg
		{
			OFFSET -15.569500 -6.655098 0.678600
			CHANNELS 3 Xrotation Yrotation Zrotation
			JOINT RightLeg
			{
				OFFSET -4.081825 -39.591045 13.023800
				CHANNELS 3 Xrotation Yrotation Zrotation
				JOINT RightFoot
				{
					OFFSET 4.081824 -37.707954 -15.979600
					CHANNELS 3 Xrotation Yrotation Zrotation
					JOINT RightToeBase
					{
						OFFSET -5.346400 -15.068900 20.645000
						CHANNELS 3 Xrotation Yrotation Zrotation
						JOINT RightToe_End
						{
							OFFSET -2.754700 0.931300 11.300900
							CHANNELS 3 Xrotation Yrotation Zrotation
							End Site
							{
								OFFSET 0 0 0
							}
						}
					}
				}
			}
		}
	}
	JOINT Spine_virtual
	{
		OFFSET 0.000000 0.000000 0.000000
		CHANNELS 3 Xrotation Yrotation Zrotation
		JOINT Spine
		{
			OFFSET -0.279200 12.230698 -2.892100
			CHANNELS 3 Xrotation Yrotation Zrotation
			JOINT Spine1
			{
				OFFSET -0.232667 10.192268 -1.242267
				CHANNELS 3 Xrotation Yrotation Zrotation
				JOINT Spine1_split
				{
					OFFSET -0.232667 10.192268 -1.242267
					CHANNELS 3 Xrotation Yrotation Zrotation
					JOINT Spine2
					{
						OFFSET -0.232667 10.192268 -1.242267
						CHANNELS 3 Xrotation Yrotation Zrotation
						JOINT Neck_virtual
						{
							OFFSET 0.000000 0.000000 0.000000
							CHANNELS 3 Xrotation Yrotation Zrotation
							JOINT Neck
							{
								OFFSET -0.418800 17.814194 8.416900
								CHANNELS 3 Xrotation Yrotation Zrotation
								JOINT Head
								{
									OFFSET 0.000000 7.031097 3.806800
									CHANNELS 3 Xrotation Yrotation Zrotation
									JOINT HeadTop_End
									{
										OFFSET 0.000000 24.646606 12.978600
										CHANNELS 3 Xrotation Yrotation Zrotation
										End Site
										{
											OFFSET 0 0 0
										}
									}
								}
							}
						}
						JOINT LeftShoulder_virtual
						{
							OFFSET 0.000000 0.000000 0.000000
							CHANNELS 3 Xrotation Yrotation Zrotation
							JOINT LeftShoulder
							{
								OFFSET 8.476499 7.247704 -3.868750
								CHANNELS 3 Xrotation Yrotation Zrotation
								JOINT LeftShoulder_split
								{
									OFFSET 8.476499 7.247704 -3.868750
									CHANNELS 3 Xrotation Yrotation Zrotation
									JOINT LeftArm
									{
										OFFSET 9.308998 -2.777710 0.208600
										CHANNELS 3 Xrotation Yrotation Zrotation
										JOINT LeftForeArm
										{
											OFFSET 29.972298 0.000000 0.000000
											CHANNELS 3 Xrotation Yrotation Zrotation
											JOINT LeftHand
											{
												OFFSET 26.026505 0.000000 0.000000
												CHANNELS 3 Xrotation Yrotation Zrotation
												End Site
												{
													OFFSET 0 0 0
												}
											}
										}
									}
								}
							}
						}
						JOINT RightShoulder_virtual
						{
							OFFSET 0.000000 0.000000 0.000000
							CHANNELS 3 Xrotation Yrotation Zrotation
							JOINT RightShoulder
							{
								OFFSET -7.570500 7.247704 -3.868750
								CHANNELS 3 Xrotation Yrotation Zrotation
								JOINT RightShoulder_split
								{
									OFFSET -7.570500 7.247704 -3.868750
									CHANNELS 3 Xrotation Yrotation Zrotation
									JOINT RightArm
									{
										OFFSET -9.308998 -2.777710 0.208500
										CHANNELS 3 Xrotation Yrotation Zrotation
										JOINT RightForeArm
										{
											OFFSET -29.972300 0.000000 0.000000
											CHANNELS 3 Xrotation Yrotation Zrotation
											JOINT RightHand
											{
												OFFSET -26.026505 0.000000 0.000000
												CHANNELS 3 Xrotation Yrotation Zrotation
												End Site
												{
													OFFSET 0 0 0
												}
											}
										}
									}
								}
							}
						}
					}
				}
			}
		}
	}
}
MOTION
Frames: 9
Frame Time: 0.03333333
5.865336 76.855156 1.822578 0.000000 0.000000 0.000000 -9.460823 -42.952410 13.573193 -20.906961 33.917739 -2.408072 50.850345 5.368214 5.935020 -22.197220 19.675357 -9.548579 -0.532374 -0.314128 -0.957164 0.000000 0.000000 0.000000 -9.771799 -42.792723 14.352278 -28.796754 10.628747 -47.857185 58.683893 2.839110 -9.496918 -21.957656 -5.865889 21.881469 -1.369790 1.748599 1.995208 0.000000 0.000000 0.000000 -4.732515 -44.551289 15.347660 1.864822 -3.624405 8.493565 -0.821454 -1.430388 5.212683 1.928703 -1.876678 0.696564 0.000000 0.000000 0.000000 -0.923577 -1.755467 4.673782 -10.349294 6.302678 7.083114 -16.744586 39.436699 -4.264485 0.000000 0.000000 0.000000 -1.314603 -1.652323 4.656753 -0.809111 1.264198 11.490006 -0.059912 1.710448 1.005830 -36.022247 -30.193483 -44.701307 -7.362881 -80.954339 -4.765937 0.000000 0.000000 0.000000 -1.398313 -1.652890 4.688658 -0.653964 -6.493761 6.855914 2.015669 1.396391 1.120479 137.148819 78.130903 -101.403802 -0.881491 27.376382 0.698983 0.000000 0.000000 0.000000 
6.653705 77.414711 2.018616 0.000000 0.000000 0.000000 -8.325038 -41.926146 14.475449 -21.135344 32.919473 -4.088607 50.100568 4.997573 5.289238 -22.230813 19.405105 -8.077103 -0.338232 -0.331091 -0.835689 0.000000 0.000000 0.000000 -8.512534 -41.691820 15.287667 -29.796714 10.506373 -47.863128 58.227451 2.741918 -9.518162 -21.034167 -5.957206 22.145784 -2.294334 1.752237 2.060668 0.000000 0.000000 0.000000 -3.454221 -43.676181 16.233773 1.926478 -3.269663 8.339976 -0.762148 -1.218943 5.194746 1.884652 -1.503463 0.472772 0.000000 0.000000 0.000000 -0.811304 -1.515033 4.674797 -9.956193 6.455523 5.980070 -15.591225 38.338811 -5.394052 0.000000 0.000000 0.000000 -1.314767 -1.388712 4.632005 -0.876924 1.640064 11.046882 0.044254 1.554957 0.919440 -35.648670 -30.409590 -44.200350 -9.650549 -84.176303 -6.999133 0.000000 0.000000 0.000000 -1.228282 -1.421318 4.700051 -0.602854 -6.992830 7.445318 1.952423 1.712985 0.634895 138.339157 77.770392 -102.836564 -0.740979 26.392348 0.650482 0.000000 0.000000 0.000000 
7.445068 78.200211 2.110600 0.000000 0.000000 0.000000 -7.148814 -40.764140 15.299757 -21.159912 31.922481 -5.759785 48.719951 4.692743 4.673875 -21.888757 18.867277 -6.782955 -0.251750 -0.345208 -0.725788 0.000000 0.000000 0.000000 -7.248835 -40.562984 16.154101 -30.992533 10.081857 -47.501145 57.390473 2.665651 -9.527511 -20.041775 -5.694400 21.793662 -2.809184 1.756274 2.162004 0.000000 0.000000 0.000000 -2.217122 -42.617542 16.960656 2.025252 -2.929710 8.218697 -0.667059 -0.987040 5.200389 1.685584 -1.154424 0.316774 0.000000 0.000000 0.000000 -0.611757 -1.257094 4.681193 -9.752342 6.488537 4.907718 -14.744186 36.797508 -6.276379 0.000000 0.000000 0.000000 -1.191391 -1.102845 4.642176 -0.935364 1.984435 10.454802 0.145062 1.569595 0.790093 -34.340012 -30.057613 -43.529844 -18.692693 -86.902566 -15.969949 0.000000 0.000000 0.000000 -0.980476 -1.172736 4.703433 -0.506786 -7.389958 7.634346 1.893515 2.107601 0.356846 138.910871 77.121633 -104.116644 -0.692681 25.035476 0.554832 0.000000 0.000000 0.000000 
8.203953 79.132393 2.063114 0.000000 0.000000 0.000000 -6.001560 -39.529290 15.955588 -21.125676 31.019004 -7.182271 46.916375 4.511083 4.104626 -21.207705 18.142430 -5.660380 -0.216047 -0.348549 -0.635516 0.000000 0.000000 0.000000 -6.062494 -39.472780 16.868069 -32.432170 9.319035 -46.891496 56.260442 2.631069 -9.426739 -18.876677 -5.073497 20.861752 -2.783317 1.783098 2.254445 0.000000 0.000000 0.000000 -1.050897 -41.491709 17.474518 2.195661 -2.560626 8.106793 -0.537589 -0.731662 5.193859 1.509230 -0.974379 0.290334 0.000000 0.000000 0.000000 -0.318611 -0.967019 4.646244 -9.702451 6.406907 4.054159 -14.190072 35.056373 -6.948938 0.000000 0.000000 0.000000 -0.942917 -0.804632 4.651449 -0.988982 2.243070 9.837654 0.332257 1.719145 0.723685 -32.597734 -29.365548 -42.966787 -50.265722 -88.516287 -47.492389 0.000000 0.000000 0.000000 -0.672393 -0.901851 4.670488 -0.384910 -7.646311 7.500974 1.843717 2.518214 0.288512 139.397126 76.131208 -105.688851 -0.725038 23.306661 0.424666 0.000000 0.000000 0.000000 
8.874122 80.067085 1.928856 0.000000 0.000000 0.000000 -4.921984 -38.285860 16.394532 -21.108524 30.242459 -8.211022 45.017254 4.447575 3.635903 -20.350371 17.315450 -4.673010 -0.128706 -0.341734 -0.583205 0.000000 0.000000 0.000000 -5.013367 -38.400082 17.350175 -34.032432 8.274371 -46.186323 55.022283 2.794883 -9.243971 -17.408011 -4.096146 19.776823 -2.624007 1.827450 2.272789 0.000000 0.000000 0.000000 -0.075110 -40.361080 17.742012 2.458778 -2.129067 7.972946 -0.358999 -0.454475 5.146063 1.392597 -0.963340 0.443368 0.000000 0.000000 0.000000 0.056306 -0.660469 4.558687 -9.725319 6.230846 3.586891 -13.818621 33.311782 -7.530011 0.000000 0.000000 0.000000 -0.606581 -0.500328 4.635103 -1.045923 2.320809 9.269835 0.493728 1.945938 0.647762 -31.077969 -28.546576 -42.755154 -92.014847 -88.735919 -89.277444 0.000000 0.000000 0.000000 -0.325951 -0.614807 4.590034 -0.271829 -7.778559 7.164578 1.923675 3.035116 0.393270 140.089270 74.860895 -107.725347 -0.825588 21.379549 0.286401 0.000000 0.000000 0.000000 
9.426131 80.893333 1.698463 0.000000 0.000000 0.000000 -3.996692 -37.038169 16.571289 -21.146395 29.586628 -8.813182 43.311910 4.460021 3.330833 -19.466915 16.458065 -3.850951 0.019547 -0.321778 -0.557613 0.000000 0.000000 0.000000 -4.174276 -37.323893 17.519287 -35.616377 7.010853 -45.468460 53.895786 3.175411 -9.032923 -15.631996 -2.876295 18.810689 -2.697205 1.869394 2.179664 0.000000 0.000000 0.000000 0.696769 -39.291326 17.767793 2.774077 -1.625630 7.800489 -0.132216 -0.176274 5.049767 1.465091 -1.364822 0.581595 0.000000 0.000000 0.000000 0.462200 -0.360686 4.425036 -9.691178 5.986322 3.514985 -13.469855 31.689551 -8.108048 0.000000 0.000000 0.000000 -0.231203 -0.221950 4.591030 -1.125741 2.259463 8.869691 0.639546 2.284676 0.628858 -30.345441 -27.869894 -42.983798 -92.625876 -88.751963 -90.037364 0.000000 0.000000 0.000000 0.020241 -0.340383 4.471997 -0.173413 -7.828683 6.729221 2.099125 3.442683 0.582392 141.492669 73.595234 -110.637945 -0.979088 19.532536 0.168031 0.000000 0.000000 0.000000 
9.828277 81.522560 1.441025 0.000000 0.000000 0.000000 -3.305606 -35.747537 16.451132 -21.247667 29.011020 -9.047857 41.939161 4.449659 3.222425 -18.639455 15.581972 -3.276792 0.084642 -0.287125 -0.496569 0.000000 0.000000 0.000000 -3.556628 -36.206976 17.348083 -36.984084 5.563860 -44.724167 52.958422 3.677776 -8.871431 -13.873235 -1.643115 17.932428 -2.741462 1.896195 2.003259 0.000000 0.000000 0.000000 1.275524 -38.256781 17.557281 3.081642 -1.071652 7.591212 0.122926 0.087216 4.908949 1.590327 -1.800428 0.704918 0.000000 0.000000 0.000000 0.844422 -0.084496 4.272822 -9.470964 5.727079 3.752975 -13.044140 30.266860 -8.744042 0.000000 0.000000 0.000000 0.129062 0.010361 4.521702 -1.214026 2.054833 8.693672 0.796165 2.782271 0.722169 -30.624987 -27.556641 -43.566549 -49.200209 -88.526738 -46.866682 0.000000 0.000000 0.000000 0.344273 -0.094785 4.345009 -0.095633 -7.835702 6.250126 2.340364 3.663468 0.713534 143.491401 72.643392 -114.325530 -1.179260 18.011863 0.077867 0.000000 0.000000 0.000000 
10.057205 81.949913 1.194885 0.000000 0.000000 0.000000 -2.855007 -34.356576 16.083943 -21.453920 28.445673 -9.026705 40.964541 4.386338 3.317232 -17.840983 14.706101 -2.987822 -0.019797 -0.246758 -0.395725 0.000000 0.000000 0.000000 -3.170162 -34.959954 16.891060 -37.966317 3.982310 -43.879324 52.145462 4.162986 -8.803019 -12.487766 -0.576359 16.969024 -2.367148 1.907997 1.789452 0.000000 0.000000 0.000000 1.655470 -37.180907 17.137744 3.312268 -0.498641 7.355854 0.385655 0.323890 4.739505 1.643250 -2.170115 0.753971 0.000000 0.000000 0.000000 1.150331 0.143722 4.131901 -9.022174 5.471528 4.167715 -12.463305 29.035401 -9.464125 0.000000 0.000000 0.000000 0.438530 0.195045 4.426242 -1.285404 1.734558 8.716440 0.980344 3.397547 0.783571 -31.620723 -27.618416 -44.129985 -17.132068 -86.802361 -15.141377 0.000000 0.000000 0.000000 0.616621 0.107167 4.219757 -0.052024 -7.828563 5.756867 2.626765 3.771823 0.762433 146.240634 72.329231 -118.972442 -1.419948 16.969352 0.012971 0.000000 0.000000 0.000000 
10.114091 82.218002 0.983379 0.000000 0.000000 0.000000 -2.628740 -32.835871 15.511143 -21.761302 27.850696 -8.878208 40.293157 4.281848 3.581965 -17.041962 13.851379 -2.899493 -0.227980 -0.208303 -0.305615 0.000000 0.000000 0.000000 -2.949876 -33.554366 16.231086 -38.554171 2.359333 -42.910783 51.479044 4.509646 -8.820891 -11.528651 0.218693 15.835580 -1.611366 1.911115 1.593851 0.000000 0.000000 0.000000 1.899543 -36.003327 16.534787 3.403402 0.060250 7.112662 0.624707 0.521129 4.554406 1.588922 -2.388178 0.719473 0.000000 0.000000 0.000000 1.350332 0.320559 4.004154 -8.381670 5.225227 4.583128 -11.782712 27.927476 -10.177007 0.000000 0.000000 0.000000 0.692004 0.333539 4.305053 -1.309521 1.360420 8.917271 1.113074 3.989519 0.811897 -32.773037 -28.114981 -44.382600 -7.994285 -83.845305 -6.325442 0.000000 0.000000 0.000000 0.831357 0.264663 4.103070 -0.044443 -7.788471 5.264918 2.871888 3.730444 0.733841 149.943962 72.860729 -124.743829 -1.687242 16.548821 -0.038039 0.000000 0.000000 0.000000 
